<?xml version="1.0" standalone="no"?>
<!DOCTYPE svg PUBLIC "-//W3C//DTD SVG 20010904//EN"
 "http://www.w3.org/TR/2001/REC-SVG-20010904/DTD/svg10.dtd">
<svg version="1.0" xmlns="http://www.w3.org/2000/svg"
 width="300.000000pt" height="450.000000pt" viewBox="0 0 300.000000 450.000000"
 preserveAspectRatio="xMidYMid meet">
<metadata>
Created by potrace 1.10, written by Peter Selinger 2001-2011
</metadata>
<g transform="translate(0.000000,450.000000) scale(0.100000,-0.100000)"
fill="#000000" stroke="none">
<path d="M1469 4354 c-6 -16 -18 -49 -25 -73 -13 -42 -13 -45 7 -59 11 -8 24
-24 29 -36 8 -20 9 -20 9 5 1 15 -8 38 -19 52 -16 20 -17 26 -6 30 15 6 33 93
22 104 -3 3 -11 -7 -17 -23z"/>
<path d="M1510 4344 c0 -22 6 -49 14 -59 11 -16 12 -23 1 -40 -8 -11 -16 -38
-19 -60 l-6 -40 15 32 c8 17 23 38 34 45 20 14 19 15 -4 82 -29 84 -35 90 -35
40z"/>
<path d="M504 4262 c-25 -16 -74 -107 -80 -148 -6 -40 -9 -44 -36 -44 -100 0
-159 -122 -93 -194 32 -34 42 -33 66 9 12 19 27 35 35 35 21 0 42 -51 37 -87
-4 -28 -8 -31 -23 -23 -10 6 -21 10 -24 10 -13 0 -46 -46 -46 -65 0 -25 33
-63 66 -75 13 -5 24 -17 24 -27 1 -10 3 -198 5 -418 2 -220 5 -425 6 -455 3
-55 -25 -291 -35 -309 -4 -5 5 -26 19 -47 41 -61 28 -135 -30 -160 l-30 -12
26 -11 c61 -23 80 -114 35 -168 -22 -26 -23 -33 -15 -78 5 -28 14 -90 19 -139
12 -98 21 -122 50 -131 23 -7 27 -25 5 -25 -13 0 -15 -52 -15 -410 0 -273 -3
-410 -10 -410 -7 0 -10 132 -8 400 3 363 -1 443 -17 378 -6 -23 0 -730 6 -802
4 -37 2 -40 -28 -48 -58 -15 -84 -86 -44 -122 15 -14 24 -15 40 -7 11 6 21 11
23 11 9 0 1 -78 -10 -97 -18 -32 -37 -28 -61 12 -17 30 -24 34 -39 26 -27 -14
-52 -56 -52 -86 0 -63 48 -107 117 -109 37 -1 38 -2 44 -46 12 -100 95 -201
116 -142 4 9 9 19 13 22 13 11 39 78 46 118 6 41 8 42 44 42 23 0 51 9 75 25
27 19 40 23 50 15 9 -7 87 -10 234 -8 155 2 221 0 221 -8 0 -30 101 -74 125
-54 6 5 17 5 24 1 9 -6 6 -14 -15 -30 -26 -20 -26 -21 -5 -21 12 0 31 4 41 10
46 25 87 142 69 203 -13 46 -57 87 -93 87 -26 -1 -29 -2 -15 -13 16 -12 16
-26 -3 -64 -11 -23 -30 -21 -59 4 -14 11 -65 13 -275 11 l-257 -3 -29 29 c-36
36 -45 29 -19 -15 28 -46 27 -84 -4 -114 -63 -64 -165 2 -165 106 0 39 16 37
30 -5 22 -67 120 -73 120 -8 0 38 -11 47 -24 19 -28 -55 -81 -19 -81 55 0 38
8 45 34 29 21 -13 47 3 55 34 11 43 -25 90 -68 90 -25 0 -67 72 -61 103 10 42
5 919 -4 943 -6 16 -10 -147 -10 -463 -1 -326 -4 -488 -11 -488 -13 0 -12 972
1 1073 8 62 7 70 -16 104 -14 19 -25 49 -25 65 0 42 27 87 58 99 l27 11 -30
12 c-57 24 -70 91 -30 150 23 34 24 40 15 109 -5 40 -9 301 -10 580 0 278 -3
513 -6 521 -3 8 -11 13 -18 10 -7 -3 -19 2 -26 11 -11 13 -10 19 6 36 11 13
19 40 22 79 4 60 4 60 -23 60 -32 0 -30 23 3 28 20 3 22 9 22 69 0 50 -6 79
-25 119 -27 56 -27 56 13 152 26 60 42 78 42 47 0 -9 11 -38 25 -65 31 -60 31
-78 3 -138 -13 -28 -23 -74 -26 -114 -4 -68 -4 -68 22 -68 16 0 26 -5 26 -15
0 -10 -10 -15 -26 -15 -26 0 -26 -1 -22 -60 3 -39 11 -66 23 -80 17 -19 17
-21 2 -38 -15 -17 -17 -66 -16 -508 0 -269 4 -477 9 -462 4 14 9 226 11 470 3
415 4 446 23 491 15 35 25 47 41 47 31 0 65 41 65 78 0 38 -33 66 -61 52 -26
-14 -26 -14 -32 31 -4 29 -1 46 11 60 24 27 37 24 61 -16 24 -42 34 -43 68 -9
l26 26 246 1 c243 2 247 2 291 27 28 16 46 33 48 47 2 15 8 20 18 16 9 -3 12
-13 9 -24 -4 -11 -2 -19 4 -19 18 0 44 -48 36 -67 -7 -16 -9 -15 -14 6 -4 13
-18 31 -31 39 -18 11 -21 12 -12 2 6 -8 12 -26 12 -41 0 -15 -6 -30 -12 -32
-7 -3 1 -6 18 -6 57 -2 111 86 98 158 -14 78 -63 141 -109 141 -18 0 -17 -3 9
-25 23 -20 27 -28 18 -37 -8 -8 -12 -8 -12 -1 0 18 -108 8 -130 -12 -11 -10
-20 -23 -20 -29 0 -8 -65 -10 -220 -8 -124 1 -228 -1 -237 -7 -14 -7 -26 -3
-48 15 -21 16 -43 24 -71 24 l-41 0 -6 45 c-7 51 -29 99 -60 133 -22 24 -26
25 -43 14z m873 -202 c18 -10 39 -30 48 -43 21 -33 30 -90 16 -113 -9 -16 -10
-13 -11 19 0 66 -42 123 -98 133 -29 6 -39 3 -53 -15 -23 -28 -14 -61 17 -61
15 0 24 6 24 15 0 8 5 15 10 15 14 0 13 -23 -2 -38 -17 -17 -53 -15 -68 3 -20
24 -15 67 10 87 29 23 67 23 107 -2z m-930 -53 c29 -29 52 -112 35 -129 -8 -8
-14 -4 -22 18 -17 43 -40 64 -70 64 -35 0 -50 -17 -50 -59 0 -33 -1 -33 -19
-17 -40 36 -30 114 18 141 33 19 79 11 108 -18z m253 18 c47 -24 51 -107 6
-144 -14 -12 -16 -10 -16 21 0 41 -15 58 -50 58 -30 0 -52 -20 -71 -65 l-13
-30 -4 37 c-4 50 22 103 61 122 40 20 51 20 87 1z m520 -15 c0 -6 -82 -10
-225 -10 -143 0 -225 4 -225 10 0 6 82 10 225 10 143 0 225 -4 225 -10z m-98
-47 c-62 -2 -161 -2 -220 0 -59 1 -8 3 113 3 121 0 169 -2 107 -3z m141 -23
c4 0 7 -3 7 -7 0 -5 -110 -8 -245 -8 -157 0 -245 4 -245 10 0 8 160 10 483 5z
m-837 -190 c17 0 27 8 34 25 11 29 30 33 30 6 0 -27 -38 -71 -61 -71 -50 0
-78 47 -46 79 10 10 13 7 15 -13 3 -20 9 -26 28 -26z m149 28 c7 -15 19 -23
35 -23 20 0 25 5 23 23 -4 29 15 28 28 -2 16 -33 -4 -66 -38 -66 -34 0 -73 36
-73 67 0 29 12 30 25 1z m-105 -564 c0 -267 -3 -403 -10 -399 -6 4 -10 148
-10 399 0 347 2 406 17 406 2 0 3 -183 3 -406z m30 21 c0 -237 -4 -365 -10
-365 -6 0 -10 126 -10 358 0 316 2 372 17 372 2 0 3 -164 3 -365z m-10 -820
c-8 -33 -10 -104 -6 -205 4 -85 7 -180 8 -210 3 -73 -13 -260 -22 -260 -7 0
-23 217 -21 275 9 195 10 392 3 413 -5 16 -6 55 -1 92 4 36 9 110 10 165 0 55
4 105 8 110 3 6 12 -66 19 -160 10 -130 10 -182 2 -220z m10 -1120 c0 -237 -4
-365 -10 -365 -6 0 -10 128 -10 365 0 237 4 365 10 365 6 0 10 -128 10 -365z
m50 -460 c5 3 11 1 15 -5 3 -5 2 -10 -3 -10 -15 0 -32 -57 -32 -106 0 -40 2
-44 25 -44 16 0 25 -6 25 -16 0 -12 -6 -15 -25 -10 -25 6 -25 5 -25 -51 0 -41
8 -74 25 -111 31 -67 31 -93 0 -160 -14 -30 -25 -60 -25 -68 0 -8 -4 -14 -10
-14 -5 0 -10 6 -10 14 0 8 -11 34 -25 57 -31 54 -32 110 -5 179 11 28 20 74
20 104 0 47 -2 53 -21 52 -12 -1 -24 5 -26 12 -3 8 6 12 25 12 29 0 30 1 25
43 -2 23 -11 61 -20 85 -12 34 -12 46 -3 57 7 8 16 13 20 10 5 -3 12 0 16 7 5
8 11 3 17 -15 5 -15 13 -25 17 -22z m-94 -63 c15 -10 34 -47 34 -66 0 -28 -29
-17 -32 12 -2 21 -8 27 -28 27 -21 0 -25 -4 -23 -28 2 -30 -13 -33 -31 -5 -22
36 42 85 80 60z m201 -21 c8 -17 9 -31 2 -43 -15 -27 -30 -22 -27 10 3 23 -1
27 -22 27 -17 0 -26 -7 -30 -24 -3 -14 -11 -26 -18 -29 -18 -6 -15 39 4 66 22
31 74 27 91 -7z m-167 -154 c-1 -34 -35 -103 -61 -121 -77 -54 -168 44 -113
122 18 26 39 30 26 5 -13 -24 2 -60 26 -67 35 -11 68 10 86 54 17 42 36 46 36
7z m950 4 c15 -30 12 -68 -10 -111 -48 -95 -188 -94 -178 1 4 38 25 54 61 45
20 -5 27 -13 27 -31 0 -14 -4 -25 -10 -25 -5 0 -10 9 -10 20 0 24 -32 27 -50
5 -20 -25 12 -65 53 -65 63 0 108 58 106 137 0 35 -1 36 -10 13 -11 -27 -27
-40 -49 -39 -10 0 -8 5 8 16 12 8 22 24 22 34 0 25 26 24 40 0z m-150 -41 c0
-6 -92 -10 -255 -10 -163 0 -255 4 -255 10 0 6 92 10 255 10 163 0 255 -4 255
-10z m-80 -40 c0 -6 -73 -10 -200 -10 -127 0 -200 4 -200 10 0 6 73 10 200 10
127 0 200 -4 200 -10z m10 -30 c0 -6 -82 -10 -225 -10 -143 0 -225 4 -225 10
0 6 82 10 225 10 143 0 225 -4 225 -10z"/>
<path d="M2430 4220 c-18 -28 -35 -70 -38 -97 l-7 -48 -48 -7 c-27 -3 -55 -12
-63 -19 -10 -8 -79 -11 -256 -10 -241 2 -242 2 -264 26 -25 27 -71 38 -126 31
-21 -3 -38 -3 -38 0 0 3 12 16 26 29 26 24 26 25 5 25 -44 0 -100 -91 -101
-163 0 -75 44 -137 98 -137 20 0 22 3 13 14 -7 8 -9 25 -5 40 3 14 2 26 -3 26
-15 0 -33 -23 -33 -44 0 -18 -1 -19 -20 -1 -43 39 -10 148 54 179 45 21 68 20
100 -5 29 -23 34 -60 10 -83 -31 -32 -93 -10 -78 28 8 22 26 21 22 -1 -2 -13
4 -18 22 -18 21 0 25 5 25 30 0 23 -6 32 -27 39 -67 24 -139 -56 -128 -144 1
-9 5 -6 11 8 5 13 18 26 28 29 13 3 18 10 13 21 -4 12 2 10 24 -7 67 -53 82
-55 344 -58 l244 -3 27 -26 c33 -32 56 -26 72 16 6 17 17 30 24 30 20 0 43
-43 40 -79 -2 -29 -4 -32 -28 -27 -56 11 -81 -70 -36 -112 13 -12 31 -22 40
-22 9 0 24 -15 34 -32 16 -30 18 -78 23 -510 l5 -476 22 -24 c22 -23 22 -29
14 -99 -9 -69 -8 -77 15 -126 19 -37 24 -60 19 -81 -6 -30 -38 -66 -65 -74
-10 -3 -6 -9 15 -19 34 -16 61 -75 51 -113 -3 -13 -17 -37 -30 -53 -17 -20
-21 -34 -15 -48 12 -31 11 -1128 -1 -1120 -6 4 -10 181 -11 508 -1 276 -5 491
-9 477 -11 -34 -12 -962 -1 -979 13 -20 -29 -100 -52 -101 -24 0 -77 -53 -77
-77 0 -11 9 -29 20 -41 17 -17 25 -20 40 -12 28 15 30 13 30 -21 0 -43 -26
-88 -52 -89 -4 0 -14 16 -22 35 -18 42 -25 43 -64 10 l-30 -25 -264 0 -264 0
-32 -31 c-18 -17 -32 -38 -32 -45 0 -17 -16 -19 -25 -3 -4 5 0 18 9 28 13 15
14 23 4 51 -9 26 -9 35 0 38 7 2 12 8 12 13 0 14 -33 11 -55 -5 -19 -13 -21
-21 -16 -103 0 -12 15 -38 32 -58 25 -28 38 -35 69 -35 43 0 63 18 58 52 -4
31 -48 39 -48 9 0 -12 -4 -21 -10 -21 -16 0 -11 47 6 54 60 23 101 -47 54 -94
-27 -27 -89 -27 -124 1 -40 32 -59 76 -53 126 2 23 3 43 0 43 -10 0 -33 -73
-33 -106 0 -66 58 -154 101 -154 22 0 22 0 -4 28 l-27 28 70 -3 c66 -2 71 -1
92 27 l23 29 240 2 c212 2 244 0 274 -15 23 -12 44 -16 67 -11 34 6 34 6 34
-32 0 -44 37 -129 68 -157 18 -16 24 -17 37 -6 29 24 66 99 74 147 6 45 8 48
34 45 69 -7 136 64 123 131 -7 35 -32 67 -53 67 -11 0 -9 -7 6 -26 64 -82 -31
-187 -112 -124 -28 22 -61 97 -55 126 5 27 20 19 32 -18 6 -18 23 -39 37 -47
24 -13 29 -13 53 2 16 11 26 27 26 42 0 34 -15 39 -28 10 -13 -29 -24 -31 -46
-9 -17 16 -18 22 -20 70 -1 28 1 31 20 24 30 -12 64 14 64 48 0 40 -26 70 -64
78 -53 9 -56 37 -56 494 0 292 -3 399 -11 394 -6 -3 -15 0 -20 7 -13 21 -11
29 7 29 14 0 15 12 7 108 -4 59 -7 137 -5 175 3 87 3 389 0 470 -2 34 1 113 5
176 7 101 7 113 -7 108 -11 -4 -16 -1 -16 11 0 23 16 46 26 39 5 -3 8 173 6
396 -2 263 1 404 8 411 7 7 10 -122 10 -405 1 -330 3 -410 13 -394 9 15 13
127 14 425 2 223 3 411 3 418 0 6 8 12 18 12 29 0 62 42 62 78 0 35 -35 67
-62 57 -23 -9 -32 52 -13 82 20 30 43 29 57 -2 29 -65 98 -23 98 60 0 63 -37
104 -105 113 -48 7 -50 8 -56 47 -15 81 -58 155 -90 155 -9 0 -31 -22 -49 -50z
m98 -77 c17 -31 15 -69 -7 -111 -10 -20 -22 -69 -26 -109 l-7 -71 28 -4 c39
-4 44 -28 5 -28 l-30 0 5 -52 c4 -29 15 -66 26 -81 22 -32 13 -53 -25 -59
l-22 -3 -5 -495 c-3 -316 -8 -466 -12 -416 -5 43 -8 269 -8 501 0 372 -2 424
-15 429 -14 5 -13 9 4 33 11 16 23 54 27 86 6 57 6 57 -20 57 -16 0 -26 5 -26
15 0 9 9 15 25 15 23 0 25 3 25 48 -1 26 -10 72 -21 102 -35 91 -34 117 2 193
l32 69 17 -49 c9 -27 22 -58 28 -70z m-125 -131 c26 -22 47 -74 47 -113 0 -35
-21 -36 -30 -1 -9 36 -38 62 -70 62 -35 0 -50 -23 -43 -64 8 -41 -17 -30 -41
18 -18 36 -18 40 -2 72 9 19 26 39 38 44 30 12 77 4 101 -18z m280 -3 c19 -24
23 -80 7 -110 -15 -26 -30 -24 -30 5 0 48 -54 72 -93 43 -10 -6 -21 -26 -25
-42 -10 -36 -28 -31 -25 8 5 103 110 163 166 96z m-453 1 c0 -6 -84 -10 -231
-10 -151 0 -228 3 -224 10 4 6 92 10 231 10 143 0 224 -4 224 -10z m-137 -47
c-56 -2 -151 -2 -210 0 -59 1 -13 3 102 3 116 0 164 -2 108 -3z m125 -28 c-4
-8 -488 -12 -488 -4 0 3 2 8 4 10 7 7 486 1 484 -6z m149 -157 c-2 -18 3 -23
23 -23 16 0 28 8 35 23 12 28 25 28 25 0 0 -28 -37 -68 -63 -68 -43 0 -72 51
-45 78 18 18 28 14 25 -10z m177 -4 c9 -34 51 -31 50 4 -1 30 14 28 28 -3 10
-22 9 -29 -9 -47 -28 -27 -67 -18 -88 22 -19 36 -19 50 -1 50 8 0 17 -12 20
-26z m-47 -746 c-1 -106 -2 -20 -2 192 0 212 1 298 2 193 2 -106 2 -280 0
-385z m0 -1896 c-1 -97 -2 -15 -2 183 0 198 1 278 2 177 2 -101 2 -263 0 -360z
m-2 -272 c3 -11 13 -20 21 -20 18 0 18 -5 0 -33 -8 -12 -17 -48 -21 -79 -7
-56 -7 -57 19 -60 30 -3 35 -23 6 -22 -11 0 -21 -4 -21 -10 -5 -40 6 -118 22
-159 25 -64 24 -107 -6 -163 -14 -26 -25 -53 -25 -60 0 -8 -4 -14 -10 -14 -5
0 -10 6 -10 14 0 8 -11 34 -25 57 -31 54 -32 105 -4 170 13 29 22 73 23 107 1
54 0 57 -21 54 -16 -2 -23 2 -23 12 0 11 9 16 26 16 26 0 26 0 19 63 -4 34
-12 71 -19 81 -10 16 -8 23 9 42 25 29 32 30 40 4z m-61 -102 c9 -12 16 -33
16 -45 0 -33 -28 -29 -32 5 -2 19 -9 28 -25 30 -20 3 -23 -1 -23 -28 0 -21 -4
-30 -12 -28 -17 6 -22 56 -7 74 18 22 65 17 83 -8z m181 -2 c13 -19 14 -29 5
-45 -15 -29 -29 -26 -27 7 2 23 -2 27 -23 27 -20 0 -26 -6 -28 -28 -2 -16 -8
-27 -15 -24 -20 6 -19 32 3 60 27 34 64 35 85 3z m-312 -166 c-5 -35 -3 -41
20 -51 22 -10 31 -9 53 6 15 9 31 30 37 46 14 36 37 38 37 4 0 -39 -25 -89
-55 -113 -83 -65 -180 39 -114 122 11 14 22 26 24 26 2 0 1 -18 -2 -40z m-685
-26 c14 -11 15 -13 2 -14 -24 0 -40 21 -39 50 l0 25 10 -24 c5 -13 17 -30 27
-37z m612 -4 c0 -6 -95 -10 -265 -10 -170 0 -265 4 -265 10 0 6 95 10 265 10
170 0 265 -4 265 -10z m-20 -40 c0 -6 -77 -10 -210 -10 -133 0 -210 4 -210 10
0 6 77 10 210 10 133 0 210 -4 210 -10z m30 -30 c0 -6 -83 -10 -230 -10 -147
0 -230 4 -230 10 0 6 83 10 230 10 147 0 230 -4 230 -10z"/>
<path d="M1420 4205 c0 -10 -10 -15 -29 -15 -17 0 -33 -4 -36 -10 -3 -6 4 -10
17 -10 35 0 65 -26 93 -78 16 -32 24 -40 25 -27 0 12 -9 38 -20 60 -23 45 -24
49 -10 40 15 -9 12 8 -6 33 -17 25 -34 29 -34 7z"/>
<path d="M1543 4193 c-4 -10 -1 -19 6 -21 8 -3 6 -9 -8 -18 -11 -8 -23 -31
-26 -52 -4 -20 -9 -46 -11 -57 -2 -11 6 3 19 31 26 54 68 94 99 94 11 0 16 5
13 10 -3 6 -17 10 -30 10 -13 0 -27 5 -30 10 -9 15 -25 12 -32 -7z"/>
<path d="M1472 3907 c-18 -49 -58 -80 -99 -75 -25 3 -30 1 -21 -9 6 -7 26 -13
44 -13 21 0 34 -5 34 -13 0 -7 14 -39 31 -72 l30 -60 -5 49 c-4 27 -13 57 -21
66 -14 15 -14 19 -1 29 15 13 31 85 24 116 -2 12 -7 6 -16 -18z"/>
<path d="M1511 3878 c-1 -35 4 -53 18 -67 17 -17 18 -21 6 -31 -16 -13 -30
-71 -23 -92 5 -15 49 73 51 103 1 14 9 19 33 19 17 0 37 7 44 15 11 13 10 14
-4 9 -37 -14 -96 21 -116 71 -7 15 -9 8 -9 -27z"/>
<path d="M2537 2670 c3 -58 9 -127 12 -155 4 -27 2 -72 -5 -100 -6 -30 -9
-109 -6 -195 7 -263 7 -284 -2 -390 -5 -68 -5 -101 2 -95 11 12 28 101 38 200
4 39 10 79 14 90 5 14 0 28 -16 48 -45 54 -20 167 37 167 10 0 19 5 19 10 0 6
-7 10 -15 10 -9 0 -27 11 -40 25 -35 34 -35 102 0 143 13 16 22 32 19 35 -4 3
-12 60 -20 127 -8 66 -21 135 -29 153 -13 30 -14 24 -8 -73z"/>
<path d="M390 2435 c0 -6 5 -26 10 -45 8 -27 7 -37 -3 -45 -14 -10 -40 -75
-31 -75 34 0 74 63 67 104 -5 23 -42 78 -43 61z"/>
<path d="M531 2414 c-12 -15 -21 -41 -21 -59 0 -32 32 -85 52 -85 13 0 1 50
-18 71 -8 9 -11 18 -8 22 6 6 24 77 19 77 -2 0 -13 -12 -24 -26z"/>
<path d="M2450 2417 c12 -35 13 -74 1 -79 -5 -1 -12 -18 -16 -36 -7 -32 -6
-33 14 -23 47 26 55 94 16 138 l-25 28 10 -28z"/>
<path d="M2581 2410 c-15 -24 -20 -44 -16 -65 5 -29 40 -75 58 -75 12 0 -3 63
-19 75 -13 10 -13 26 0 57 16 36 -1 42 -23 8z"/>
<path d="M307 2311 c-26 -16 -56 -35 -65 -44 -14 -15 -15 -19 -2 -32 25 -24
130 -84 130 -74 0 37 -56 79 -105 79 -39 0 -30 17 13 24 38 6 92 45 92 66 0
14 -8 12 -63 -19z"/>
<path d="M2630 2334 c0 -30 59 -74 100 -74 11 0 20 -4 20 -10 0 -5 -12 -10
-26 -10 -36 0 -62 -16 -85 -53 l-21 -32 7 38 c3 20 2 37 -3 37 -16 0 -52 -40
-58 -65 -7 -29 10 -78 34 -97 14 -11 15 -10 7 7 -4 11 -9 34 -9 50 -1 24 3 30
20 30 12 0 30 7 40 16 11 9 38 26 62 38 55 28 52 45 -17 93 -52 36 -71 45 -71
32z"/>
<path d="M580 2310 c12 -23 42 -40 86 -50 47 -11 34 9 -26 43 -60 33 -75 35
-60 7z"/>
<path d="M2351 2297 c-30 -18 -56 -38 -58 -44 -6 -17 134 -106 154 -99 13 5
15 1 10 -26 -3 -18 -8 -42 -12 -53 -5 -16 -1 -14 19 8 34 37 36 94 3 125 -32
30 -39 28 -31 -13 4 -23 2 -35 -5 -35 -6 0 -11 9 -11 19 0 26 -35 50 -82 58
-43 6 -51 23 -13 23 34 0 82 25 95 50 16 29 -5 25 -69 -13z"/>
<path d="M618 2224 c-16 -8 -28 -18 -28 -22 0 -5 -7 -17 -16 -28 -14 -18 -15
-17 -9 19 7 43 -2 47 -33 14 -29 -31 -29 -90 -1 -125 l21 -27 -5 30 c-3 17 -8
38 -12 48 -6 13 -2 17 16 17 18 0 102 48 144 82 17 14 -49 8 -77 -8z"/>
<path d="M370 2211 c5 -11 10 -29 10 -40 0 -12 6 -21 14 -21 15 0 19 -47 5
-56 -5 -3 -9 -13 -9 -22 0 -14 3 -13 21 5 31 30 30 95 -1 128 -29 31 -56 34
-40 6z"/>
<path d="M2550 1283 c0 -261 4 -393 10 -383 13 21 13 767 0 775 -7 4 -10 -129
-10 -392z"/>
<path d="M1476 815 c-4 -11 -19 -44 -34 -72 -22 -44 -31 -53 -53 -53 -15 0
-31 -6 -38 -13 -8 -11 -5 -13 19 -9 41 6 77 -20 101 -71 l19 -42 0 37 c0 45
-15 87 -38 104 -16 13 -16 13 0 14 19 0 42 66 35 103 -3 21 -4 21 -11 2z"/>
<path d="M1511 798 c-1 -50 15 -88 36 -88 17 -1 17 -1 1 -10 -18 -11 -33 -52
-42 -115 l-5 -40 14 31 c8 17 29 46 46 64 25 24 39 31 61 28 18 -3 27 0 25 6
-2 6 -18 13 -37 16 -33 5 -50 29 -88 120 -10 24 -11 23 -11 -12z"/>
<path d="M1477 443 c-10 -49 -72 -113 -111 -113 -26 -1 -28 -2 -13 -11 9 -6
26 -9 36 -7 10 2 25 -3 34 -10 13 -11 18 -10 31 10 18 27 39 119 34 145 -3 12
-6 6 -11 -14z"/>
<path d="M1507 415 c3 -27 12 -62 19 -76 15 -31 44 -57 44 -40 0 6 13 11 29
11 17 0 33 5 36 10 3 6 -4 10 -18 10 -28 0 -69 41 -97 95 l-19 40 6 -50z"/>
<path d="M1460 299 c-21 -21 -24 -31 -19 -65 3 -21 16 -59 28 -84 l21 -45 -5
50 c-3 28 -11 54 -18 59 -11 7 -10 16 6 47 25 52 19 71 -13 38z"/>
<path d="M1512 287 c12 -51 12 -69 3 -127 -9 -54 6 -44 24 15 21 70 19 98 -10
127 l-26 27 9 -42z"/>
</g>
</svg>
